<svg width="167" height="29" viewBox="0 0 167 29" fill="none" xmlns="http://www.w3.org/2000/svg">
<path d="M15.9166 4.45312L17.9569 8.53372C18.2351 9.10176 18.977 9.64661 19.603 9.75095L23.3011 10.3654C25.666 10.7595 26.2224 12.4752 24.5183 14.1677L21.6433 17.0427C21.1565 17.5296 20.8898 18.4686 21.0405 19.141L21.8636 22.6999C22.5128 25.5169 21.0173 26.6066 18.5249 25.1343L15.0587 23.0824C14.4327 22.7115 13.401 22.7115 12.7634 23.0824L9.29722 25.1343C6.8164 26.6066 5.30936 25.5053 5.95854 22.6999L6.78162 19.141C6.93232 18.4686 6.66569 17.5296 6.1788 17.0427L3.30384 14.1677C1.61132 12.4752 2.15617 10.7595 4.52106 10.3654L8.2191 9.75095C8.83351 9.64661 9.57544 9.10176 9.85366 8.53372L11.894 4.45312C13.0069 2.23893 14.8153 2.23893 15.9166 4.45312Z" fill="#FFC23C"/>
<path d="M50.6944 4.45312L52.7347 8.53372C53.013 9.10176 53.7549 9.64661 54.3809 9.75095L58.0789 10.3654C60.4438 10.7595 61.0003 12.4752 59.2961 14.1677L56.4212 17.0427C55.9343 17.5296 55.6677 18.4686 55.8184 19.141L56.6414 22.6999C57.2906 25.5169 55.7952 26.6066 53.3028 25.1343L49.8366 23.0824C49.2106 22.7115 48.1788 22.7115 47.5412 23.0824L44.075 25.1343C41.5942 26.6066 40.0872 25.5053 40.7364 22.6999L41.5595 19.141C41.7102 18.4686 41.4435 17.5296 40.9566 17.0427L38.0817 14.1677C36.3891 12.4752 36.934 10.7595 39.2989 10.3654L42.9969 9.75095C43.6113 9.64661 44.3533 9.10176 44.6315 8.53372L46.6718 4.45312C47.7847 2.23893 49.5931 2.23893 50.6944 4.45312Z" fill="#FFC23C"/>
<path d="M85.4723 4.45312L87.5126 8.53372C87.7908 9.10176 88.5327 9.64661 89.1587 9.75095L92.8568 10.3654C95.2216 10.7595 95.7781 12.4752 94.074 14.1677L91.199 17.0427C90.7121 17.5296 90.4455 18.4686 90.5962 19.141L91.4193 22.6999C92.0685 25.5169 90.573 26.6066 88.0806 25.1343L84.6144 23.0824C83.9884 22.7115 82.9567 22.7115 82.3191 23.0824L78.8529 25.1343C76.3721 26.6066 74.865 25.5053 75.5142 22.6999L76.3373 19.141C76.488 18.4686 76.2214 17.5296 75.7345 17.0427L72.8595 14.1677C71.167 12.4752 71.7118 10.7595 74.0767 10.3654L77.7748 9.75095C78.3892 9.64661 79.1311 9.10176 79.4093 8.53372L81.4496 4.45312C82.5625 2.23893 84.371 2.23893 85.4723 4.45312Z" fill="#FFC23C"/>
<path d="M120.25 4.45312L122.29 8.53372C122.569 9.10176 123.311 9.64661 123.937 9.75095L127.635 10.3654C129.999 10.7595 130.556 12.4752 128.852 14.1677L125.977 17.0427C125.49 17.5296 125.223 18.4686 125.374 19.141L126.197 22.6999C126.846 25.5169 125.351 26.6066 122.858 25.1343L119.392 23.0824C118.766 22.7115 117.734 22.7115 117.097 23.0824L113.631 25.1343C111.15 26.6066 109.643 25.5053 110.292 22.6999L111.115 19.141C111.266 18.4686 110.999 17.5296 110.512 17.0427L107.637 14.1677C105.945 12.4752 106.49 10.7595 108.855 10.3654L112.553 9.75095C113.167 9.64661 113.909 9.10176 114.187 8.53372L116.227 4.45312C117.34 2.23893 119.149 2.23893 120.25 4.45312Z" fill="#FFC23C"/>
<path d="M155.028 4.45312L157.068 8.53372C157.346 9.10176 158.088 9.64661 158.714 9.75095L162.412 10.3654C164.777 10.7595 165.334 12.4752 163.63 14.1677L160.755 17.0427C160.268 17.5296 160.001 18.4686 160.152 19.141L160.975 22.6999C161.624 25.5169 160.129 26.6066 157.636 25.1343L154.17 23.0824C153.544 22.7115 152.512 22.7115 151.875 23.0824L148.409 25.1343C145.928 26.6066 144.421 25.5053 145.07 22.6999L145.893 19.141C146.044 18.4686 145.777 17.5296 145.29 17.0427L142.415 14.1677C140.723 12.4752 141.267 10.7595 143.632 10.3654L147.33 9.75095C147.945 9.64661 148.687 9.10176 148.965 8.53372L151.005 4.45312C152.118 2.23893 153.927 2.23893 155.028 4.45312Z" fill="#FFC23C"/>
</svg>
