<svg width="97" height="17" viewBox="0 0 97 17" fill="none" xmlns="http://www.w3.org/2000/svg">
<path d="M9.8065 2.39934L10.9798 4.746C11.1398 5.07267 11.5665 5.386 11.9265 5.446L14.0532 5.79934C15.4132 6.026 15.7332 7.01267 14.7532 7.986L13.0998 9.63934C12.8198 9.91934 12.6665 10.4593 12.7532 10.846L13.2265 12.8927C13.5998 14.5127 12.7398 15.1393 11.3065 14.2927L9.31317 13.1127C8.95317 12.8993 8.35984 12.8993 7.99317 13.1127L5.99984 14.2927C4.57317 15.1393 3.7065 14.506 4.07983 12.8927L4.55317 10.846C4.63983 10.4593 4.4865 9.91934 4.2065 9.63934L2.55317 7.986C1.57983 7.01267 1.89317 6.026 3.25317 5.79934L5.37983 5.446C5.73317 5.386 6.15983 5.07267 6.31983 4.746L7.49317 2.39934C8.13317 1.126 9.17317 1.126 9.8065 2.39934Z" fill="#CF9B29"/>
<path d="M29.8065 2.39934L30.9798 4.746C31.1398 5.07267 31.5665 5.386 31.9265 5.446L34.0532 5.79934C35.4132 6.026 35.7332 7.01267 34.7532 7.986L33.0998 9.63934C32.8198 9.91934 32.6665 10.4593 32.7532 10.846L33.2265 12.8927C33.5998 14.5127 32.7398 15.1393 31.3065 14.2927L29.3132 13.1127C28.9532 12.8993 28.3598 12.8993 27.9932 13.1127L25.9998 14.2927C24.5732 15.1393 23.7065 14.506 24.0798 12.8927L24.5532 10.846C24.6398 10.4593 24.4865 9.91934 24.2065 9.63934L22.5532 7.986C21.5798 7.01267 21.8932 6.026 23.2532 5.79934L25.3798 5.446C25.7332 5.386 26.1598 5.07267 26.3198 4.746L27.4932 2.39934C28.1332 1.126 29.1732 1.126 29.8065 2.39934Z" fill="#CF9B29"/>
<path d="M49.8065 2.39934L50.9798 4.746C51.1398 5.07267 51.5665 5.386 51.9265 5.446L54.0532 5.79934C55.4132 6.026 55.7332 7.01267 54.7532 7.986L53.0998 9.63934C52.8198 9.91934 52.6665 10.4593 52.7532 10.846L53.2265 12.8927C53.5998 14.5127 52.7398 15.1393 51.3065 14.2927L49.3132 13.1127C48.9532 12.8993 48.3598 12.8993 47.9932 13.1127L45.9998 14.2927C44.5732 15.1393 43.7065 14.506 44.0798 12.8927L44.5532 10.846C44.6398 10.4593 44.4865 9.91934 44.2065 9.63934L42.5532 7.986C41.5798 7.01267 41.8932 6.026 43.2532 5.79934L45.3798 5.446C45.7332 5.386 46.1598 5.07267 46.3198 4.746L47.4932 2.39934C48.1332 1.126 49.1732 1.126 49.8065 2.39934Z" fill="#CF9B29"/>
<path d="M69.8065 2.39934L70.9798 4.746C71.1398 5.07267 71.5665 5.386 71.9265 5.446L74.0532 5.79934C75.4132 6.026 75.7332 7.01267 74.7532 7.986L73.0998 9.63934C72.8198 9.91934 72.6665 10.4593 72.7532 10.846L73.2265 12.8927C73.5998 14.5127 72.7398 15.1393 71.3065 14.2927L69.3132 13.1127C68.9532 12.8993 68.3598 12.8993 67.9932 13.1127L65.9998 14.2927C64.5732 15.1393 63.7065 14.506 64.0798 12.8927L64.5532 10.846C64.6398 10.4593 64.4865 9.91934 64.2065 9.63934L62.5532 7.986C61.5798 7.01267 61.8932 6.026 63.2532 5.79934L65.3798 5.446C65.7332 5.386 66.1598 5.07267 66.3198 4.746L67.4932 2.39934C68.1332 1.126 69.1732 1.126 69.8065 2.39934Z" fill="#CF9B29"/>
<path d="M89.8065 2.39934L90.9798 4.746C91.1398 5.07267 91.5665 5.386 91.9265 5.446L94.0532 5.79934C95.4132 6.026 95.7332 7.01267 94.7532 7.986L93.0998 9.63934C92.8198 9.91934 92.6665 10.4593 92.7532 10.846L93.2265 12.8927C93.5998 14.5127 92.7398 15.1393 91.3065 14.2927L89.3132 13.1127C88.9532 12.8993 88.3598 12.8993 87.9932 13.1127L85.9998 14.2927C84.5732 15.1393 83.7065 14.506 84.0798 12.8927L84.5532 10.846C84.6398 10.4593 84.4865 9.91934 84.2065 9.63934L82.5532 7.986C81.5798 7.01267 81.8932 6.026 83.2532 5.79934L85.3798 5.446C85.7332 5.386 86.1598 5.07267 86.3198 4.746L87.4932 2.39934C88.1332 1.126 89.1732 1.126 89.8065 2.39934Z" fill="#CF9B29"/>
</svg>
