<svg width="41" height="41" viewBox="0 0 41 41" fill="none" xmlns="http://www.w3.org/2000/svg">
<g clip-path="url(#clip0_301_2687)">
<rect x="-0.462891" y="10.7925" width="40.765" height="18.2845" rx="2" fill="white"/>
<path d="M14.4334 16.501V22.6023H12.9967V16.8063L14.4334 16.501ZM10.3434 21.1657C10.7385 21.1657 11.0617 20.8424 11.0617 20.4473C11.0617 20.0522 10.743 19.729 10.3434 19.729C9.9483 19.729 9.62505 20.0478 9.62505 20.4473C9.62954 20.8469 9.9483 21.1657 10.3434 21.1657ZM10.3434 18.234C11.5646 18.234 12.5568 19.2262 12.5568 20.4473C12.5568 21.673 11.5646 22.6607 10.3434 22.6607C9.11772 22.6607 8.13001 21.6685 8.13001 20.4473C8.13001 19.2262 9.12221 18.234 10.3434 18.234ZM10.3434 23.1815C10.7385 23.1815 11.0617 23.5047 11.0617 23.8998C11.0617 24.2949 10.7385 24.6182 10.3434 24.6182C9.9483 24.6182 9.62505 24.2949 9.62505 23.8998C9.62954 23.5003 9.9483 23.1815 10.3434 23.1815ZM7.15128 19.3743C7.49698 19.7155 7.71248 20.1914 7.71248 20.7167C7.71248 21.7583 6.86844 22.6023 5.82685 22.6023H3.31717V16.501H5.5485C6.59008 16.501 7.43413 17.345 7.43413 18.3866C7.43413 18.7503 7.33087 19.087 7.15128 19.3743ZM5.83134 21.1657C6.07827 21.1657 6.2803 20.9636 6.2803 20.7167C6.2803 20.4698 6.07827 20.2677 5.83134 20.2677H4.75384V21.1657H5.83134ZM4.75384 17.9376V18.8356H5.55299C5.79991 18.8356 6.00195 18.6335 6.00195 18.3866C6.00195 18.1397 5.79991 17.9376 5.55299 17.9376H4.75384ZM17.1406 19.7514H16.4268V20.8783C16.4268 21.2195 16.5345 21.471 16.8219 21.471C17.0059 21.471 17.1406 21.4305 17.1406 21.4305V22.4856C17.1406 22.4856 16.8443 22.6652 16.4402 22.6652H16.4268C16.4088 22.6652 16.3909 22.6652 16.3729 22.6652H16.3594C16.3505 22.6652 16.3415 22.6652 16.3325 22.6652C15.5334 22.6248 14.9856 22.1175 14.9856 21.242V17.5246L16.4223 17.2193V18.3148H17.1406V19.7514Z" fill="#34D186"/>
<path d="M25.3968 21.1657C25.7964 21.1657 26.1152 20.8424 26.1152 20.4473C26.1152 20.0522 25.7919 19.729 25.3968 19.729C24.9972 19.729 24.6785 20.0478 24.6785 20.4473C24.6785 20.8469 25.0017 21.1657 25.3968 21.1657ZM25.3968 18.234C26.6225 18.234 27.6147 19.2262 27.6147 20.4473C27.6147 21.673 26.618 22.6607 25.3968 22.6607C24.1712 22.6607 23.179 21.6685 23.179 20.4473C23.179 19.2262 24.1756 18.234 25.3968 18.234ZM30.0929 21.1657C30.4925 21.1657 30.8113 20.8424 30.8113 20.4473C30.8113 20.0522 30.488 19.729 30.0929 19.729C29.6934 19.729 29.3746 20.0478 29.3746 20.4473C29.3746 20.8469 29.6978 21.1657 30.0929 21.1657ZM30.0929 18.234C31.3186 18.234 32.3108 19.2262 32.3108 20.4473C32.3108 21.673 31.3141 22.6607 30.0929 22.6607C28.8673 22.6607 27.8751 21.6685 27.8751 20.4473C27.8751 19.2262 28.8718 18.234 30.0929 18.234ZM20.8264 20.2722V22.6023H19.3897V16.501H23.2283V17.9376H20.8264V18.8311H22.7929V20.2677H20.8264V20.2722ZM35.5523 22.2342C35.3098 22.4587 34.9956 22.6023 34.6095 22.6023C33.4871 22.6023 32.5757 21.6236 32.5757 20.4159C32.5757 19.2082 33.4871 18.2295 34.6095 18.2295C34.9956 18.2295 35.3098 18.3686 35.5523 18.5931V16.501H36.9889V22.6023H35.5523V22.2342ZM34.7711 21.1432C35.1707 21.1432 35.4984 20.82 35.4984 20.4204C35.4984 20.0208 35.1751 19.6976 34.7711 19.6976C34.3715 19.6976 34.0438 20.0208 34.0438 20.4204C34.0438 20.82 34.3715 21.1432 34.7711 21.1432Z" fill="#2F313F"/>
</g>
<defs>
<clipPath id="clip0_301_2687">
<rect width="40" height="40" fill="white" transform="translate(0.153168 0.55957)"/>
</clipPath>
</defs>
</svg>
