<svg width="41" height="41" viewBox="0 0 41 41" fill="none" xmlns="http://www.w3.org/2000/svg">
<g clip-path="url(#clip0_301_501)">
<path fill-rule="evenodd" clip-rule="evenodd" d="M0.51791 22.4637V22.4393C0.51791 20.0334 2.38798 17.996 5.01937 17.996C6.32868 17.996 7.20129 18.3026 7.99953 18.8673C8.09605 18.9379 8.17458 19.0302 8.22876 19.1369C8.28294 19.2435 8.31125 19.3613 8.31138 19.4809C8.31138 19.8863 7.97482 20.23 7.5506 20.23C7.35111 20.23 7.20156 20.1439 7.07671 20.0579C6.51569 19.653 5.90473 19.3826 4.95694 19.3826C3.34852 19.3826 2.1266 20.77 2.1266 22.4146V22.4393C2.1266 24.2068 3.31106 25.5079 5.09427 25.5079C5.91721 25.5079 6.66524 25.2502 7.20156 24.8574V23.2495H5.48077C5.10649 23.2495 4.79517 22.9674 4.79517 22.5992C4.79517 22.2308 5.10649 21.9362 5.48077 21.9362H7.9124C8.34857 21.9362 8.6854 22.2677 8.6854 22.6975V24.9926C8.6854 25.4221 8.51087 25.7292 8.14935 25.9499C7.40105 26.4411 6.35365 26.8828 5.0446 26.8828C2.31334 26.8826 0.51791 24.9681 0.51791 22.4637ZM10.0606 18.45C10.0606 18.0449 10.3847 17.7134 10.8084 17.7134C11.2326 17.7134 11.5691 18.0449 11.5691 18.45V26.0604C11.5691 26.4777 11.2323 26.7968 10.8084 26.7968C10.3972 26.7968 10.0606 26.478 10.0606 26.0602V18.4497V18.45ZM12.7379 23.5319V23.5069C12.7379 21.6535 14.234 20.1192 16.2541 20.1192C18.274 20.1192 19.7581 21.6291 19.7581 23.4827V23.5069C19.7581 25.3485 18.2618 26.8828 16.2292 26.8828C14.2215 26.8828 12.7379 25.373 12.7379 23.5319ZM18.2493 23.5319V23.5069C18.2493 22.3657 17.4136 21.4206 16.2292 21.4206C15.0195 21.4206 14.2465 22.3535 14.2465 23.4827V23.5069C14.2465 24.6364 15.0819 25.5815 16.2541 25.5815C17.4761 25.5815 18.2491 24.6486 18.2491 23.5319H18.2493ZM23.5251 26.8581H23.4502C23.039 26.8581 22.7643 26.6005 22.5901 26.2073L20.3959 21.2607C20.3582 21.1502 20.3083 21.028 20.3083 20.8925C20.3083 20.5243 20.6448 20.1806 21.0563 20.1806C21.4675 20.1806 21.6795 20.4138 21.8043 20.7209L23.5001 25.0168L25.2209 20.6965C25.3333 20.4385 25.5325 20.1806 25.9318 20.1806C26.3432 20.1806 26.6673 20.4877 26.6673 20.8925C26.6673 21.028 26.6176 21.1751 26.5804 21.2485L24.3858 26.2076C24.2105 26.588 23.9368 26.8584 23.5251 26.8584V26.8581ZM27.2174 23.5319V23.5069C27.2174 21.6535 28.7138 20.1192 30.7345 20.1192C32.7538 20.1192 34.2379 21.6291 34.2379 23.4827V23.5069C34.2379 25.3485 32.7416 26.8828 30.709 26.8828C28.7015 26.8828 27.2174 25.373 27.2174 23.5319ZM32.7294 23.5319V23.5069C32.7294 22.3657 31.8937 21.4206 30.709 21.4206C29.4995 21.4206 28.7265 22.3535 28.7265 23.4827V23.5069C28.7265 24.6364 29.5617 25.5815 30.7342 25.5815C31.9558 25.5815 32.7291 24.6486 32.7291 23.5319H32.7294Z" fill="#00A082"/>
<path fill-rule="evenodd" clip-rule="evenodd" d="M36.7609 14.2358C35.1273 14.2358 33.7983 15.5446 33.7983 17.1525C33.7983 17.7651 33.9917 18.3532 34.3569 18.8531L34.4358 18.9607L35.9781 21.1036C35.9781 21.1036 36.1664 21.4064 36.5768 21.4064H36.9453C37.3559 21.4064 37.5435 21.1036 37.5435 21.1036L39.0863 18.9607L39.1644 18.8531C39.5276 18.3605 39.7236 17.7645 39.7235 17.1525C39.7235 15.5446 38.3946 14.2358 36.7609 14.2358V14.2358ZM37.9802 18.0137L37.8981 18.1269L36.7612 19.7066L35.6259 18.1301L35.5425 18.0156C35.3576 17.7658 35.2576 17.4633 35.2572 17.1525C35.2572 16.3362 35.9319 15.6721 36.7607 15.6721C37.59 15.6721 38.2644 16.3362 38.2644 17.1525C38.2644 17.462 38.1661 17.7598 37.9802 18.0137V18.0137ZM35.9276 22.7221V22.7162C35.9276 22.2806 36.2791 21.9196 36.7538 21.9196C37.229 21.9196 37.5775 22.2745 37.5775 22.7104V22.7162C37.5775 23.1487 37.2258 23.5094 36.7482 23.5094C36.2767 23.5094 35.9274 23.1548 35.9274 22.7221H35.9276Z" fill="#00A082"/>
</g>
<defs>
<clipPath id="clip0_301_501">
<rect width="40" height="40" fill="white" transform="translate(0.153168 0.55957)"/>
</clipPath>
</defs>
</svg>
