<svg width="143" height="41" viewBox="0 0 143 41" fill="none" xmlns="http://www.w3.org/2000/svg">
<rect x="0.5" y="5.26172" width="32" height="30.4762" rx="5" fill="url(#paint0_linear_135_6102)"/>
<path d="M54.588 13.992C54.66 13.992 54.732 13.968 54.78 13.92C54.828 13.872 54.852 13.8 54.852 13.728V10.488C54.852 10.344 54.756 10.224 54.612 10.224H41.508C41.412 10.224 41.34 10.272 41.292 10.344C41.244 10.416 41.244 10.488 41.268 10.584L41.94 12.264V24.984L41.268 26.664C41.244 26.736 41.244 26.832 41.292 26.904C41.34 26.976 41.412 27 41.508 27H55.116C55.26 27 55.356 26.904 55.356 26.76V23.4C55.356 23.328 55.332 23.256 55.284 23.208C55.212 23.16 55.164 23.136 55.092 23.16L46.524 24.24V19.056L52.812 19.92C52.884 19.944 52.956 19.92 53.004 19.872C53.076 19.824 53.1 19.752 53.1 19.68V16.464C53.1 16.344 52.98 16.224 52.86 16.224H46.524V12.984L54.588 13.992ZM69.5076 24.984V19.248C69.5076 13.704 61.2036 14.112 57.6756 15.624C57.6276 15.648 57.5796 15.696 57.5556 15.768C57.5316 15.84 57.5316 15.888 57.5556 15.96L58.6116 18.168C58.6596 18.216 58.7076 18.264 58.7796 18.288C58.8516 18.312 58.9236 18.288 58.9716 18.24C60.2916 17.304 62.8116 15.864 64.3956 16.848C64.7796 17.088 64.8996 17.568 64.9476 18.024C64.9236 18.024 64.8996 18.024 64.8756 18.024C62.4276 18.024 59.7396 18.624 57.9876 20.472C56.8596 21.672 56.2116 23.448 56.8836 25.056C57.5556 26.664 59.2356 27.288 60.8916 27.288C62.4036 27.288 63.7716 26.904 64.9476 26.016V26.76C64.9476 26.904 65.0436 27 65.1876 27H69.9636C70.0596 27 70.1316 26.976 70.1796 26.904C70.2036 26.832 70.2276 26.76 70.2036 26.688L69.5076 24.984ZM64.9476 22.104C64.9476 23.016 64.5396 23.856 63.7716 24.36C63.2916 24.696 62.4996 24.912 61.9716 24.528C61.6836 24.336 61.5876 24.024 61.5636 23.688C61.5156 22.872 61.9236 22.008 62.4516 21.384C63.0996 20.64 63.9636 20.208 64.9476 20.112V22.104ZM71.6158 23.856C71.6158 26.184 72.8878 27.36 75.1918 27.36C76.8958 27.36 78.1438 27.072 79.4158 26.088C79.4878 26.04 79.5118 25.968 79.5118 25.896V24.096C79.5118 24 79.4638 23.928 79.3678 23.88C79.2958 23.832 79.1998 23.856 79.1278 23.928C77.8078 25.032 76.1758 25.08 76.1758 23.016V17.184L79.1758 18.48C79.2478 18.504 79.3438 18.504 79.4158 18.456C79.4878 18.408 79.5118 18.336 79.5118 18.264V15.264C79.5118 15.12 79.4158 15.024 79.2718 15.024H76.1758V10.488C76.1758 10.416 76.1518 10.344 76.1038 10.296C76.0318 10.248 75.9598 10.248 75.8878 10.248L71.7838 11.376L70.9438 11.64C70.8718 11.664 70.7998 11.712 70.7758 11.784C70.7518 11.856 70.7518 11.928 70.7998 12L71.6158 13.344V23.856Z" fill="white"/>
<defs>
<linearGradient id="paint0_linear_135_6102" x1="4.05395" y1="32.4297" x2="22.908" y2="4.49382" gradientUnits="userSpaceOnUse">
<stop stop-color="#FF1D5C"/>
<stop offset="0.9883" stop-color="#FFBE30"/>
</linearGradient>
</defs>
</svg>
