<svg width="135" height="41" viewBox="0 0 135 41" fill="none" xmlns="http://www.w3.org/2000/svg">
<rect x="0.5" y="5.26172" width="32" height="30.4762" rx="5" fill="url(#paint0_linear_135_6102)"/>
<path d="M42.684 26.76C42.684 27.84 42.156 30.48 41.34 31.224C41.268 31.296 41.244 31.392 41.292 31.512C41.34 31.608 41.436 31.656 41.532 31.632C43.668 31.296 46.236 30.144 47.028 28.008C47.196 27.576 47.268 27.12 47.268 26.688V12.264L47.964 10.584C47.988 10.488 47.964 10.416 47.916 10.344C47.892 10.272 47.796 10.224 47.724 10.224H42.252C42.156 10.224 42.084 10.272 42.036 10.344C41.988 10.416 41.988 10.488 42.012 10.584L42.684 12.264V26.76ZM53.8058 22.584L57.8618 21.312L60.5258 20.472L61.3658 20.208C61.4618 20.16 61.5338 20.064 61.5338 19.944C61.2938 16.392 59.3018 14.736 55.7498 14.736C51.9338 14.736 48.8618 16.968 48.8618 21C48.8618 25.056 51.9338 27.288 55.7738 27.288C57.8378 27.288 59.9738 26.712 61.3418 25.104C61.4138 25.008 61.4138 24.888 61.3418 24.792C61.2698 24.696 61.1258 24.672 61.0298 24.72C60.2137 25.2 59.2778 25.416 58.3418 25.416C58.0538 25.416 57.7898 25.392 57.5018 25.344C55.9658 25.128 54.3338 24.192 53.8298 22.632C53.8298 22.608 53.8298 22.608 53.8058 22.584ZM53.3498 20.856C53.2058 19.944 53.1818 18.936 53.4218 18.072C53.5898 17.448 53.9258 16.728 54.5498 16.464C54.5978 16.44 54.6698 16.44 54.7178 16.416C56.0138 16.104 56.8298 17.352 57.1178 18.432C57.2138 18.816 57.2618 19.224 57.2378 19.608L53.3498 20.856ZM67.8321 10.488C67.8321 10.416 67.8081 10.344 67.7601 10.296C67.6881 10.248 67.6161 10.248 67.5441 10.248L63.4401 11.376L62.6001 11.64C62.5281 11.664 62.4561 11.712 62.4321 11.784C62.4081 11.856 62.4081 11.928 62.4561 12L63.2721 13.344V24.984L62.6001 26.688C62.5521 26.76 62.5761 26.832 62.6241 26.904C62.6721 26.976 62.7441 27 62.8161 27H68.2881C68.3841 27 68.4561 26.976 68.5041 26.904C68.5521 26.832 68.5521 26.76 68.5281 26.688L67.8321 24.984V10.488ZM76.3519 27.288C80.2159 27.288 83.3359 25.056 83.3359 21C83.3359 16.944 80.1919 14.736 76.3519 14.736C72.5359 14.736 69.4399 16.968 69.4399 21C69.4399 25.056 72.5119 27.288 76.3519 27.288ZM77.1919 17.328C77.9359 18.192 78.4399 19.368 78.7039 20.472C78.9439 21.576 79.0399 22.848 78.7519 23.952C78.5839 24.6 78.1999 25.44 77.4559 25.608C76.7119 25.776 76.0159 25.224 75.5599 24.696C74.8159 23.832 74.3119 22.656 74.0479 21.552C73.8079 20.472 73.7119 19.176 73.9999 18.072C74.1679 17.424 74.5519 16.584 75.2959 16.416C76.0399 16.248 76.7359 16.824 77.1919 17.328ZM89.1161 16.176C88.9721 15.84 89.2121 15.504 89.0681 15.168C89.0441 15.072 88.9481 15.024 88.8521 15.024H83.8361C83.7401 15.024 83.6681 15.048 83.6201 15.12C83.5721 15.192 83.5721 15.288 83.5961 15.36L88.9241 26.88C88.9721 26.952 89.0681 27 89.1641 27H92.1641C92.2601 27 92.3321 26.952 92.3801 26.856L97.4201 15.36C97.4441 15.288 97.4441 15.192 97.3961 15.12C97.3481 15.048 97.2761 15.024 97.1801 15.024H93.2201C93.0761 15.024 92.9801 15.096 92.9801 15.216L91.9001 22.536C90.9401 20.424 90.0521 18.288 89.1161 16.176ZM106.091 26.688C106.043 26.76 106.067 26.832 106.115 26.904C106.163 26.976 106.235 27 106.307 27H111.779C111.875 27 111.947 26.976 111.971 26.904C112.019 26.832 112.043 26.76 111.995 26.688L111.323 24.984V18.168C111.323 16.056 110.051 14.736 107.963 14.736C107.099 14.712 106.259 14.88 105.491 15.288C104.867 15.648 104.291 16.08 103.715 16.512V15.264C103.715 15.192 103.691 15.12 103.619 15.072C103.571 15.024 103.499 15 103.427 15.024L98.4829 16.416C98.4109 16.44 98.3389 16.488 98.3149 16.56C98.2909 16.632 98.2909 16.704 98.3389 16.776L99.1069 18.024V25.104L98.4829 26.688C98.4349 26.76 98.4589 26.832 98.5069 26.904C98.5549 26.976 98.6269 27 98.6989 27H104.171C104.267 27 104.339 26.976 104.387 26.904C104.435 26.832 104.435 26.76 104.411 26.688L103.715 24.984V18.912C104.075 18.624 104.459 18.36 104.843 18.144C105.203 17.952 105.995 17.568 106.427 17.784C106.715 17.928 106.763 18.408 106.763 18.696V24.984L106.091 26.688ZM118.668 24.984V15.264C118.668 15.192 118.644 15.12 118.596 15.072C118.524 15.024 118.452 15 118.38 15.024L114.276 16.128C114.276 16.152 114.276 16.152 114.276 16.152L113.436 16.416C113.364 16.44 113.292 16.488 113.268 16.56C113.244 16.632 113.244 16.704 113.292 16.776L114.108 18.12V24.984L113.436 26.688C113.388 26.76 113.412 26.832 113.46 26.904C113.508 26.976 113.58 27 113.652 27H119.124C119.22 27 119.292 26.976 119.34 26.904C119.388 26.832 119.388 26.76 119.364 26.688L118.668 24.984ZM113.844 11.832C113.844 13.176 114.948 14.256 116.292 14.256H116.316H116.34C117.684 14.28 118.788 13.176 118.788 11.832C118.788 10.464 117.684 9.384 116.34 9.384H116.316H116.292C114.948 9.384 113.844 10.464 113.844 11.832ZM126.027 10.488C126.027 10.416 126.003 10.344 125.931 10.296C125.883 10.248 125.811 10.248 125.739 10.248L121.635 11.376L120.795 11.64C120.723 11.664 120.651 11.712 120.627 11.784C120.603 11.856 120.603 11.928 120.651 12L121.467 13.344V24.984L120.795 26.688C120.747 26.76 120.771 26.832 120.819 26.904C120.867 26.976 120.939 27 121.011 27H126.483C126.579 27 126.651 26.976 126.699 26.904C126.747 26.832 126.747 26.76 126.723 26.688L126.027 24.984V22.848L128.955 26.904C129.003 26.976 129.075 27 129.147 27H133.419C133.515 27 133.587 26.952 133.635 26.88C133.683 26.784 133.683 26.712 133.611 26.616L128.715 19.824L133.131 15.432C133.203 15.36 133.227 15.264 133.179 15.168C133.131 15.072 133.059 15.024 132.963 15.024H129.147C129.075 15.024 129.003 15.048 128.955 15.12L126.027 19.632V10.488Z" fill="white"/>
<defs>
<linearGradient id="paint0_linear_135_6102" x1="4.05395" y1="32.4297" x2="22.908" y2="4.49382" gradientUnits="userSpaceOnUse">
<stop stop-color="#FF1D5C"/>
<stop offset="0.9883" stop-color="#FFBE30"/>
</linearGradient>
</defs>
</svg>
