<svg width="41" height="41" viewBox="0 0 41 41" fill="none" xmlns="http://www.w3.org/2000/svg">
<path d="M36.8861 19.6104C37.4537 19.6014 37.8502 19.4212 37.9493 18.8896C38.0034 18.5742 37.8232 18.367 37.4537 18.3489C37.4537 18.3489 36.3995 18.2949 35.1921 18.2408C35.1921 18.2408 33.3899 18.1687 32.8853 18.1597C32.4348 18.1507 32.0022 18.1417 31.6959 18.1507C31.4165 18.1597 31.2814 18.3039 31.2183 18.5292C31.1642 18.7634 31.1102 19.0968 31.0922 19.4392C31.0741 19.7006 31.3625 19.8267 31.6508 19.8087C31.6508 19.8087 32.0113 19.7907 32.5699 19.7636C33.2097 19.7366 34.9397 19.6645 34.9397 19.6645C35.5615 19.6465 36.2373 19.6285 36.8861 19.6104Z" fill="#4EA9E3"/>
<path d="M35.192 18.241C35.192 18.241 35.4353 16.8984 35.5615 16.3488C35.6246 16.0785 35.4804 15.8172 35.138 15.727C34.8046 15.6459 34.0297 15.6369 33.7683 15.673C33.5521 15.7 33.3448 15.8262 33.2908 16.0514C33.1646 16.6101 33.0385 17.2859 32.8853 18.1599C32.8042 18.5564 32.651 19.2773 32.5789 19.7729C32.4708 20.2685 32.2726 21.584 32.1915 22.404C32.0833 23.3862 32.0293 23.9629 32.0923 24.8099C32.2906 26.3327 33.0835 26.9274 34.3721 26.9274C35.5615 26.9274 36.6968 26.1795 37.5078 24.8189C37.67 24.5486 37.7871 24.3143 37.688 24.1971C37.4537 23.9268 37.0032 23.7917 36.8861 24.0079C36.3544 24.9811 35.7777 25.3776 35.156 25.3776C34.6604 25.3776 34.2639 25.0802 34.2639 24.2332C34.2639 22.9987 34.9578 19.6738 34.9578 19.6738C35.0389 19.2953 35.138 18.7727 35.192 18.241Z" fill="#4EA9E3"/>
<path d="M32.5789 19.7637C32.4708 20.2593 32.2636 21.5749 32.1915 22.3949C31.6869 24.1069 30.6326 25.3594 29.7225 25.3594C29.1639 25.3594 28.8305 25.026 28.8305 24.0258C28.8305 22.6381 29.1458 20.881 29.6144 19.1239C29.9298 17.511 30.2632 15.9341 30.3443 15.0781C30.3713 14.7808 30.5605 14.3663 30.2001 14.2942C29.5513 14.168 28.9386 14.1861 28.5061 14.3212C28.1186 14.4384 28.0465 14.8438 27.9925 15.0601C27.7672 16.0963 27.4068 17.9345 27.1545 19.5475C27.0734 20.0971 26.9382 20.7729 26.8211 21.4397C26.8211 21.4397 26.4606 23.2779 26.4606 24.3592C26.4606 25.9992 27.1635 26.9092 28.8124 26.9092C30.1731 26.9092 31.3535 25.9541 32.0923 24.7917C32.7862 23.6293 33.8494 19.7187 33.8494 19.7187C34.4622 19.7096 32.0203 19.7907 32.5789 19.7637Z" fill="#4EA9E3"/>
<path d="M34.1648 18.2321C34.1648 18.2321 34.2189 16.8895 34.345 16.3489C34.4081 16.0786 34.0207 15.6461 33.7593 15.6731C33.5431 15.7001 33.3358 15.8263 33.2818 16.0515C33.1556 16.6102 32.8763 18.1601 32.8763 18.1601L32.5699 19.773C32.5699 19.773 32.2545 21.5841 32.1825 22.4041C31.6779 24.1162 30.6236 25.3687 29.7135 25.3687C29.1548 25.3687 28.8214 25.0353 28.8214 24.0351C28.8214 22.6474 26.4516 23.2962 26.4516 24.3685C26.4516 26.0084 27.1545 26.9185 28.8034 26.9185C30.1641 26.9185 31.3445 25.9634 32.0833 24.801C33.2187 22.6654 33.8675 19.8451 33.8675 19.8451L34.1648 18.2321Z" fill="#4EA9E3"/>
<path d="M28.8755 18.5293C29.5333 16.9524 28.9296 14.2041 28.5061 14.3393C28.1186 14.4564 28.425 17.0425 28.3799 17.2588C28.1547 18.295 28.0105 18.3761 27.1545 19.5655C26.5868 20.2503 25.938 20.7279 25.2352 20.8541C23.2618 21.0613 22.9645 20.1512 23.7033 18.8807C24.8567 16.8893 23.3339 17.5831 22.577 18.8897C22.3517 19.2862 22.2887 19.7457 22.2706 20.1963C22.2526 20.7639 22.3427 21.4758 23.0816 22.0074C23.8836 22.5751 24.5233 22.467 25.118 22.3498C25.7668 22.2147 26.3255 21.9083 26.8121 21.4668C26.8211 21.4578 28.416 20.2864 28.8755 18.5293Z" fill="#4EA9E3"/>
<path d="M29.6144 19.142C30.2722 17.5651 30.6506 15.808 30.6506 15.0151C30.6506 14.7177 30.5605 14.3843 30.2001 14.3123C29.5513 14.1861 28.9386 14.2041 28.5061 14.3393C28.1186 14.4564 28.5962 15.1232 28.5511 15.3395C28.3259 16.3757 29.1458 20.8991 29.6144 19.142Z" fill="#4EA9E3"/>
<path d="M20.8559 25.6026C20.1621 25.6026 19.7026 25.0079 19.7026 23.8275C19.7026 21.5568 20.5135 19.1239 21.9553 19.1239C22.1175 19.1239 22.2616 19.1419 22.3878 19.196C22.8473 19.3582 23.1537 20.9351 23.0005 21.9533C22.6941 23.9446 21.8111 25.6026 20.8559 25.6026ZM25.2352 20.854C25.127 18.7184 23.8836 17.7993 22.1715 17.7993C19.1709 17.7993 17.2516 20.4755 17.2516 23.4761C17.2516 25.909 18.5762 26.9272 20.5135 26.9272C22.7933 26.9272 24.4963 25.3053 25.127 22.3407C25.2172 21.8091 25.2352 21.4397 25.2352 20.854Z" fill="#4EA9E3"/>
<path d="M16.1411 14.2261C15.7446 14.2261 15.3842 14.2441 15.213 14.2621C14.8615 14.2982 14.7444 14.6316 14.7714 14.9559C15.1409 19.6866 14.0956 25.1922 12.9152 25.1922C12.0322 25.1922 11.7889 22.6241 11.7889 20.3354C11.7889 18.9838 11.87 17.6772 11.897 16.5328C11.906 16.1093 11.7528 16.0282 11.4465 15.9922C10.9779 15.9381 10.6445 15.9381 10.176 16.0372C9.82454 16.1183 9.73443 16.4067 9.36499 17.2897C7.50878 21.705 5.71564 25.2552 5.71564 25.2552C5.23807 21.696 5.8508 18.2449 6.36441 15.7309C6.4365 15.3885 6.2743 15.1812 5.98596 15.1812C5.44531 15.1902 4.62534 15.2082 4.2559 15.4515C3.90448 15.6768 3.77833 15.9201 3.67921 16.4247C3.10252 19.3081 2.73308 22.9214 3.30977 25.7238C3.43592 26.3275 3.57108 26.4717 3.83239 26.6249C4.08469 26.7871 5.184 26.9222 5.60751 26.9222C6.09409 26.9222 6.53561 26.7961 6.89604 26.1653C7.67097 24.8317 8.30172 23.4981 9.47312 20.9301C9.59026 24.2731 10.0678 26.8952 12.4196 26.8952C15.5374 26.8952 17.5468 19.1189 17.5468 15.3704C17.5468 14.3883 17.0512 14.2261 16.1411 14.2261Z" fill="#4EA9E3"/>
</svg>
